<svg width="86" height="86" viewBox="0 0 86 86" fill="none" xmlns="http://www.w3.org/2000/svg">
<rect x="0.5" y="0.5" width="85" height="85" rx="23.5" stroke="#313235"/>
<path fill-rule="evenodd" clip-rule="evenodd" d="M41.7324 24.2197C42.6136 24.0659 43.5332 23.9893 44.4912 23.9893C45.2479 23.9893 45.958 24.0304 46.6211 24.1123V20H47.5986V24.2695C47.7171 24.2933 47.8342 24.3179 47.9492 24.3447C48.9998 24.582 49.9148 24.9039 50.6943 25.3105C51.474 25.7173 52.1016 26.1751 52.5762 26.6836C53.0845 27.1919 53.457 27.7175 53.6943 28.2598H53.8477V24.5996H56.4912V34.9717H53.8477V32.124C53.8476 31.2428 53.6271 30.4292 53.1865 29.6836C52.7459 28.904 52.1182 28.2435 51.3047 27.7012C50.525 27.1588 49.5757 26.7348 48.457 26.4297C48.1797 26.3517 47.8936 26.2836 47.5986 26.2256V58.167C49.1887 57.8939 50.5601 57.3328 51.7119 56.4805C53.4407 55.1923 54.695 53.5309 55.4746 51.4971L57 52.209C56.6272 53.2597 56.1017 54.2937 55.4238 55.3105C54.7459 56.3275 53.8978 57.2431 52.8809 58.0566C51.864 58.8362 50.6602 59.4799 49.2705 59.9883C48.7417 60.1734 48.1842 60.3207 47.5986 60.4336V65.957H46.6211V60.585C45.9915 60.6603 45.3323 60.7002 44.6436 60.7002C43.6315 60.7002 42.6613 60.6157 41.7324 60.4492V65.957H40.7539V60.2393C39.9865 60.0464 39.2488 59.7946 38.542 59.4805C36.7454 58.6669 35.2031 57.4802 33.915 55.9209C32.6608 54.3277 31.6946 52.3952 31.0166 50.124C30.3387 47.8529 30 45.2598 30 42.3447C30 39.3619 30.3387 36.7349 31.0166 34.4639C31.6945 32.1589 32.6609 30.2432 33.915 28.7178C35.1692 27.1585 36.6947 25.9886 38.4912 25.209C39.2125 24.8823 39.967 24.6223 40.7539 24.4268V20H41.7324V24.2197ZM44.7969 25.9717C43.6957 25.9717 42.6739 26.0863 41.7324 26.3145V57.9521C42.7963 58.2238 43.9529 58.3613 45.2031 58.3613C45.692 58.3613 46.1647 58.3388 46.6211 58.2959V26.0742C46.043 26.0066 45.435 25.9717 44.7969 25.9717ZM40.7539 26.6035C40.4298 26.717 40.1161 26.8451 39.8135 26.9893C38.4237 27.6672 37.2538 28.6157 36.3047 29.8359C35.3556 31.0562 34.6445 32.5311 34.1699 34.2598C33.6954 35.9547 33.458 37.8534 33.458 39.9551V44.5312C33.458 48.9718 34.4919 52.395 36.5596 54.8018C37.7071 56.1186 39.1053 57.0692 40.7539 57.6553V26.6035Z" fill="white"/>
</svg>
